# xmcd
#
# Track frame offsets: 
#        150
#        13286
#        27238
#        43012
#        58057
#        75259
#        91056
#        106164
#        119739
#        140262
#        153464
#        166573
#        181008
#        196552
#        210373
#        226944
#        242683
#        267991
#        289205
#
# Disc length: 4102 seconds
#
# Revision: 0
# Processed by: cddbd v1.5.2PL0 Copyright (c) Steve Scherf et al.
# Submitted via: ExactAudioCopy v0.95b4
#
DISCID=ed100413
DTITLE=Валерий Ободзинский - Лучшие песни 1
DYEAR=2001
DGENRE=Retro
TTITLE0=01 Девушка
TTITLE1=02 Если девочка тебя избегает
TTITLE2=03 Восточная песня
TTITLE3=04 Письмо
TTITLE4=05 1-е апреля
TTITLE5=06 Эти глаза напротив
TTITLE6=07 Луна
TTITLE7=08 Всё сбудется
TTITLE8=09 Такая ночь
TTITLE9=10 Анжела
TTITLE10=11 Пойми меня
TTITLE11=12 Что-то случилось
TTITLE12=13 Подожди
TTITLE13=14 Листопад
TTITLE14=15 Прощальная встреча
TTITLE15=16 Запоздалая любовь
TTITLE16=17 Где же ты
TTITLE17=18 Запомни
TTITLE18=19 Олеандр
EXTD=
EXTT0=
EXTT1=
EXTT2=
EXTT3=
EXTT4=
EXTT5=
EXTT6=
EXTT7=
EXTT8=
EXTT9=
EXTT10=
EXTT11=
EXTT12=
EXTT13=
EXTT14=
EXTT15=
EXTT16=
EXTT17=
EXTT18=
PLAYORDER=
